<svg width="65" height="65" viewBox="0 0 65 65" fill="none" xmlns="http://www.w3.org/2000/svg">
<path fill-rule="evenodd" clip-rule="evenodd" d="M32.4998 61.375C48.4469 61.375 61.3748 48.447 61.3748 32.5C61.3748 16.553 48.4469 3.62499 32.4998 3.62499C16.5528 3.62499 3.62484 16.553 3.62484 32.5C3.62484 48.447 16.5528 61.375 32.4998 61.375ZM32.4998 64.5833C50.2195 64.5833 64.5832 50.2196 64.5832 32.5C64.5832 14.7804 50.2195 0.416656 32.4998 0.416656C14.7802 0.416656 0.416504 14.7804 0.416504 32.5C0.416504 50.2196 14.7802 64.5833 32.4998 64.5833Z" fill="#082673"/>
<path d="M13.25 51.1565C13.25 49.4994 14.4884 48.0989 16.1375 47.916C28.5136 46.5461 36.5425 46.6696 48.8914 47.9465C49.508 48.0113 50.0925 48.2542 50.5733 48.6457C51.0542 49.0371 51.4107 49.5601 51.5992 50.1508C51.7877 50.7415 51.8001 51.3744 51.6349 51.972C51.4696 52.5696 51.1339 53.1062 50.6688 53.5162C36.0949 66.2196 27.7661 66.0447 14.2767 53.529C13.619 52.9194 13.25 52.0516 13.25 51.1565Z" fill="#082673"/>
<path fill-rule="evenodd" clip-rule="evenodd" d="M48.7258 49.541C36.4748 48.2738 28.5615 48.155 16.312 49.5106C15.9088 49.5576 15.5371 49.7516 15.268 50.0556C14.999 50.3596 14.8515 50.7521 14.8539 51.158C14.8539 51.6168 15.0447 52.0516 15.3672 52.3531C22.0534 58.5549 27.1193 61.3573 32.0714 61.375C37.0411 61.3926 42.3797 58.6126 49.6145 52.3082C49.8444 52.1037 50.0098 51.8367 50.0908 51.5399C50.1718 51.243 50.1648 50.929 50.0706 50.6361C49.9765 50.3431 49.7993 50.0839 49.5606 49.8897C49.3218 49.6956 49.0318 49.5734 48.7258 49.541ZM15.9607 46.3215C28.4668 44.9371 36.6128 45.0622 49.0579 46.3504C49.9856 46.4472 50.8649 46.8124 51.5882 47.4013C52.3116 47.9902 52.8475 48.7772 53.1304 49.666C53.4133 50.5548 53.431 51.5068 53.1812 52.4054C52.9314 53.3041 52.425 54.1104 51.724 54.7257C44.385 61.1231 38.2731 64.6074 32.0617 64.5833C25.8328 64.5609 19.9904 61.0173 13.1871 54.7049C12.7 54.2512 12.3117 53.7019 12.0465 53.0913C11.7812 52.4808 11.6447 51.8221 11.6455 51.1564C11.6432 49.9604 12.0822 48.8056 12.8784 47.9131C13.6747 47.0207 14.7722 46.455 15.9607 46.3215Z" fill="#082673"/>
<path d="M45.3332 26.0833C45.3332 29.4869 43.9811 32.7512 41.5744 35.1579C39.1677 37.5646 35.9034 38.9167 32.4998 38.9167C29.0962 38.9167 25.832 37.5646 23.4253 35.1579C21.0186 32.7512 19.6665 29.4869 19.6665 26.0833C19.6665 22.6797 21.0186 19.4155 23.4253 17.0088C25.832 14.6021 29.0962 13.25 32.4998 13.25C35.9034 13.25 39.1677 14.6021 41.5744 17.0088C43.9811 19.4155 45.3332 22.6797 45.3332 26.0833Z" fill="#082673"/>
<path fill-rule="evenodd" clip-rule="evenodd" d="M32.4998 35.7083C35.0525 35.7083 37.5007 34.6943 39.3057 32.8892C41.1108 31.0842 42.1248 28.636 42.1248 26.0833C42.1248 23.5306 41.1108 21.0825 39.3057 19.2774C37.5007 17.4724 35.0525 16.4583 32.4998 16.4583C29.9471 16.4583 27.499 17.4724 25.6939 19.2774C23.8889 21.0825 22.8748 23.5306 22.8748 26.0833C22.8748 28.636 23.8889 31.0842 25.6939 32.8892C27.499 34.6943 29.9471 35.7083 32.4998 35.7083ZM32.4998 38.9167C35.9034 38.9167 39.1677 37.5646 41.5744 35.1579C43.9811 32.7512 45.3332 29.4869 45.3332 26.0833C45.3332 22.6797 43.9811 19.4155 41.5744 17.0088C39.1677 14.6021 35.9034 13.25 32.4998 13.25C29.0962 13.25 25.832 14.6021 23.4253 17.0088C21.0186 19.4155 19.6665 22.6797 19.6665 26.0833C19.6665 29.4869 21.0186 32.7512 23.4253 35.1579C25.832 37.5646 29.0962 38.9167 32.4998 38.9167Z" fill="#082673"/>
</svg>
