<svg width="35" height="35" viewBox="0 0 35 35" fill="none" xmlns="http://www.w3.org/2000/svg">
<path fill-rule="evenodd" clip-rule="evenodd" d="M10.7979 25.3123C15.789 24.5831 19.2256 24.6458 24.2233 25.3378C24.5853 25.3903 24.916 25.5719 25.1544 25.8492C25.3928 26.1265 25.5229 26.4807 25.5205 26.8464C25.5205 27.1964 25.4002 27.5362 25.1829 27.8016C24.8042 28.2644 24.4162 28.7195 24.0192 29.1666H25.9449C26.0659 29.0223 26.1877 28.875 26.3109 28.7255C26.7434 28.1951 26.9794 27.5316 26.9788 26.8472C26.9788 25.3706 25.9011 24.0982 24.4231 23.894C19.3073 23.186 15.7314 23.1182 10.5872 23.87C9.09384 24.088 8.02051 25.3801 8.02051 26.8669C8.02051 27.5268 8.23561 28.1794 8.64322 28.708C8.76353 28.864 8.88238 29.0172 9.00051 29.1674H10.8796C10.5102 28.7251 10.1499 28.2754 9.79895 27.8184C9.59038 27.5449 9.47786 27.2101 9.47884 26.8661C9.47884 26.0808 10.0432 25.4224 10.7979 25.3123ZM17.4997 18.2291C18.0742 18.2291 18.6431 18.116 19.1739 17.8961C19.7047 17.6763 20.187 17.354 20.5933 16.9477C20.9995 16.5415 21.3218 16.0592 21.5416 15.5284C21.7615 14.9976 21.8747 14.4287 21.8747 13.8541C21.8747 13.2796 21.7615 12.7107 21.5416 12.1799C21.3218 11.6491 20.9995 11.1668 20.5933 10.7606C20.187 10.3543 19.7047 10.032 19.1739 9.81217C18.6431 9.59231 18.0742 9.47915 17.4997 9.47915C16.3394 9.47915 15.2266 9.94008 14.4061 10.7606C13.5856 11.581 13.1247 12.6938 13.1247 13.8541C13.1247 15.0145 13.5856 16.1273 14.4061 16.9477C15.2266 17.7682 16.3394 18.2291 17.4997 18.2291ZM17.4997 19.6875C19.0468 19.6875 20.5305 19.0729 21.6245 17.9789C22.7184 16.885 23.333 15.4012 23.333 13.8541C23.333 12.3071 22.7184 10.8233 21.6245 9.72936C20.5305 8.63539 19.0468 8.02081 17.4997 8.02081C15.9526 8.02081 14.4688 8.63539 13.3749 9.72936C12.2809 10.8233 11.6663 12.3071 11.6663 13.8541C11.6663 15.4012 12.2809 16.885 13.3749 17.9789C14.4688 19.0729 15.9526 19.6875 17.4997 19.6875Z" fill="white"/>
<path fill-rule="evenodd" clip-rule="evenodd" d="M17.4998 30.625C24.7485 30.625 30.6248 24.7486 30.6248 17.5C30.6248 10.2513 24.7485 4.37499 17.4998 4.37499C10.2512 4.37499 4.37484 10.2513 4.37484 17.5C4.37484 24.7486 10.2512 30.625 17.4998 30.625ZM17.4998 32.0833C25.5542 32.0833 32.0832 25.5544 32.0832 17.5C32.0832 9.44561 25.5542 2.91666 17.4998 2.91666C9.44546 2.91666 2.9165 9.44561 2.9165 17.5C2.9165 25.5544 9.44546 32.0833 17.4998 32.0833Z" fill="white"/>
</svg>
