<svg width="74" height="47" viewBox="0 0 74 47" fill="none" xmlns="http://www.w3.org/2000/svg">
<g clip-path="url(#clip0_986_3429)">
<path d="M9.25 28.2H71.6875C72.3138 28.2 72.8558 28.4326 73.3135 28.8977C73.7712 29.3628 74 29.9135 74 30.55V47H64.75V37.6H9.25V47H0V2.35C0 1.71354 0.228841 1.16276 0.686523 0.697656C1.14421 0.232552 1.6862 0 2.3125 0H6.9375C7.5638 0 8.10579 0.232552 8.56348 0.697656C9.02116 1.16276 9.25 1.71354 9.25 2.35V28.2ZM30.0625 16.45C30.0625 13.8552 29.1592 11.6398 27.3525 9.80391C25.5459 7.96797 23.3659 7.05 20.8125 7.05C18.2591 7.05 16.0791 7.96797 14.2725 9.80391C12.4658 11.6398 11.5625 13.8552 11.5625 16.45C11.5625 19.0448 12.4658 21.2602 14.2725 23.0961C16.0791 24.932 18.2591 25.85 20.8125 25.85C23.3659 25.85 25.5459 24.932 27.3525 23.0961C29.1592 21.2602 30.0625 19.0448 30.0625 16.45ZM74 25.85V23.5C74 19.6078 72.645 16.2848 69.9351 13.5309C67.2251 10.777 63.9551 9.4 60.125 9.4H34.6875C34.0612 9.4 33.5192 9.63255 33.0615 10.0977C32.6038 10.5628 32.375 11.1135 32.375 11.75V25.85H74Z" fill="#082673"/>
</g>
<defs>
<clipPath id="clip0_986_3429">
<rect width="74" height="47" fill="white"/>
</clipPath>
</defs>
</svg>
