<svg width="34" height="34" viewBox="0 0 34 34" fill="none" xmlns="http://www.w3.org/2000/svg">
<g clip-path="url(#clip0_444_611)">
<path d="M16.9999 32.3756C17.5948 32.3619 18.1657 32.1382 18.6117 31.7441C19.0576 31.35 19.3498 30.811 19.4365 30.2222H14.4688C14.558 30.827 14.8638 31.3787 15.3294 31.7748C15.795 32.1709 16.3886 32.3844 16.9999 32.3756Z" fill="white"/>
<path d="M30.7037 26.2839C29.793 25.472 28.9956 24.5412 28.3331 23.5167C27.6099 22.1024 27.1764 20.5579 27.0581 18.9739V14.3083C27.0543 13.7416 27.0038 13.1762 26.907 12.6178C26.1637 12.4692 25.4493 12.2013 24.7915 11.8244C25.0422 12.6318 25.1696 13.4724 25.1693 14.3178V18.9833C25.285 20.9157 25.8166 22.8003 26.7276 24.5083C27.3796 25.5416 28.1533 26.4928 29.032 27.3417H4.84482C5.72353 26.4928 6.49721 25.5416 7.14926 24.5083C8.06028 22.8003 8.59183 20.9157 8.70759 18.9833V14.3083C8.70262 13.2153 8.9133 12.1321 9.32757 11.1206C9.74183 10.1091 10.3515 9.18926 11.1218 8.41374C11.892 7.63822 12.8077 7.02226 13.8163 6.60112C14.825 6.17997 15.9068 5.96192 16.9998 5.95945C18.5995 5.96073 20.1632 6.4338 21.4954 7.31945C21.3485 6.78016 21.2661 6.22536 21.2498 5.66667V5.07167C20.2637 4.58656 19.2043 4.26747 18.1143 4.12722V2.93722C18.1143 2.60283 17.9814 2.28213 17.745 2.04568C17.5085 1.80923 17.1878 1.67639 16.8534 1.67639C16.519 1.67639 16.1983 1.80923 15.9619 2.04568C15.7254 2.28213 15.5926 2.60283 15.5926 2.93722V4.17445C13.1519 4.51875 10.9181 5.73443 9.30375 7.59705C7.68936 9.45967 6.80334 11.8435 6.80926 14.3083V18.9739C6.69097 20.5579 6.25749 22.1024 5.53426 23.5167C4.88343 24.5389 4.09889 25.4695 3.20148 26.2839C3.10074 26.3724 3.02 26.4813 2.96463 26.6035C2.90926 26.7256 2.88054 26.8581 2.88037 26.9922V28.2767C2.88037 28.5272 2.97987 28.7674 3.15699 28.9445C3.33411 29.1216 3.57433 29.2211 3.82482 29.2211H30.0804C30.3309 29.2211 30.5711 29.1216 30.7482 28.9445C30.9253 28.7674 31.0248 28.5272 31.0248 28.2767V26.9922C31.0246 26.8581 30.9959 26.7256 30.9406 26.6035C30.8852 26.4813 30.8044 26.3724 30.7037 26.2839Z" fill="white"/>
<path d="M28.3336 10.3889C30.9416 10.3889 33.0558 8.27469 33.0558 5.66668C33.0558 3.05867 30.9416 0.944458 28.3336 0.944458C25.7255 0.944458 23.6113 3.05867 23.6113 5.66668C23.6113 8.27469 25.7255 10.3889 28.3336 10.3889Z" fill="white"/>
</g>
<defs>
<clipPath id="clip0_444_611">
<rect width="34" height="34" fill="white"/>
</clipPath>
</defs>
</svg>
