<svg width="38" height="37" viewBox="0 0 38 37" fill="none" xmlns="http://www.w3.org/2000/svg">
<path d="M17.4165 27.75H20.5832V24.6667H17.4165V27.75ZM18.9998 3.08334C16.9206 3.08334 14.8617 3.48211 12.9407 4.25687C11.0197 5.03163 9.27424 6.16721 7.80398 7.59878C4.83465 10.49 3.1665 14.4113 3.1665 18.5C3.1665 22.5888 4.83465 26.5101 7.80398 29.4012C9.27424 30.8328 11.0197 31.9684 12.9407 32.7432C14.8617 33.5179 16.9206 33.9167 18.9998 33.9167C23.1991 33.9167 27.2264 32.2924 30.1957 29.4012C33.165 26.5101 34.8332 22.5888 34.8332 18.5C34.8332 16.4755 34.4236 14.4707 33.6279 12.6003C32.8322 10.7299 31.666 9.03035 30.1957 7.59878C28.7254 6.16721 26.98 5.03163 25.059 4.25687C23.138 3.48211 21.0791 3.08334 18.9998 3.08334ZM18.9998 30.8333C12.0173 30.8333 6.33317 25.2988 6.33317 18.5C6.33317 11.7013 12.0173 6.16668 18.9998 6.16668C25.9823 6.16668 31.6665 11.7013 31.6665 18.5C31.6665 25.2988 25.9823 30.8333 18.9998 30.8333ZM18.9998 9.25001C17.3201 9.25001 15.7092 9.89971 14.5215 11.0562C13.3338 12.2127 12.6665 13.7812 12.6665 15.4167H15.8332C15.8332 14.5989 16.1668 13.8147 16.7607 13.2364C17.3545 12.6582 18.16 12.3333 18.9998 12.3333C19.8397 12.3333 20.6451 12.6582 21.239 13.2364C21.8329 13.8147 22.1665 14.5989 22.1665 15.4167C22.1665 18.5 17.4165 18.1146 17.4165 23.125H20.5832C20.5832 19.6563 25.3332 19.2708 25.3332 15.4167C25.3332 13.7812 24.6659 12.2127 23.4782 11.0562C22.2904 9.89971 20.6795 9.25001 18.9998 9.25001Z" fill="white"/>
</svg>
