<svg width="34" height="31" viewBox="0 0 34 31" fill="none" xmlns="http://www.w3.org/2000/svg">
<path d="M17.0275 0C14.2216 0.00325672 11.4642 0.696056 9.02215 2.01133C6.58009 3.3266 4.53609 5.2198 3.08805 7.50763C1.64001 9.79546 0.836971 12.4004 0.756676 15.0704C0.676381 17.7403 1.32155 20.3847 2.62973 22.7477L1.40856 26.8236C1.26202 27.3152 1.25601 27.8351 1.39113 28.3297C1.52625 28.8242 1.79761 29.2755 2.17718 29.6368C2.55675 29.9982 3.03077 30.2565 3.55028 30.3851C4.0698 30.5137 4.61596 30.508 5.13237 30.3685L9.414 29.206C11.5992 30.3046 14.0183 30.9153 16.4882 30.9918C18.958 31.0683 21.4138 30.6086 23.6694 29.6476C25.9249 28.6866 27.9211 27.2494 29.5066 25.4451C31.0922 23.6407 32.2255 21.5164 32.8207 19.2332C33.4159 16.95 33.4573 14.5678 32.9419 12.2671C32.4265 9.96638 31.3677 7.80754 29.8458 5.95416C28.3239 4.10077 26.3788 2.60147 24.1579 1.56986C21.937 0.53825 19.4986 0.00140349 17.0275 0ZM17.0275 27.5556C14.7533 27.5514 12.5212 26.9719 10.5598 25.8764C10.285 25.711 9.96519 25.6262 9.64014 25.6324C9.47235 25.6302 9.30501 25.6495 9.14263 25.6898L5.19267 26.7662L6.32339 23.006C6.38967 22.7804 6.40648 22.5442 6.37276 22.3121C6.33905 22.08 6.25553 21.857 6.1274 21.6569C4.97661 19.7897 4.36786 17.6649 4.36349 15.5C4.36349 13.1156 5.10621 10.7848 6.49775 8.80229C7.88929 6.81977 9.86713 5.27458 12.1812 4.36212C14.4952 3.44966 17.0415 3.21092 19.4981 3.67609C21.9547 4.14126 24.2112 5.28944 25.9822 6.97544C27.7533 8.66144 28.9595 10.8095 29.4481 13.1481C29.9367 15.4866 29.686 17.9106 28.7274 20.1135C27.7689 22.3163 26.1458 24.1991 24.0632 25.5238C21.9806 26.8485 19.5322 27.5556 17.0275 27.5556ZM24.6108 15.988L22.7413 14.9259C22.3083 14.6757 21.8157 14.5339 21.3095 14.5139C20.8034 14.4938 20.3001 14.596 19.8467 14.8111L19.0929 15.1699C18.3411 14.8266 17.7348 14.2495 17.3742 13.5338L17.7511 12.8162C17.977 12.3846 18.0845 11.9055 18.0634 11.4237C18.0423 10.9418 17.8934 10.4729 17.6305 10.0606L16.5149 8.28102C16.2475 7.85729 15.8696 7.50649 15.4179 7.26259C14.9663 7.0187 14.4561 6.88997 13.9368 6.88889H13.4092C11.9815 6.88502 10.6101 7.41829 9.59352 8.37256C8.57697 9.32683 7.99767 10.6248 7.98176 11.9838C7.97183 13.573 8.29206 15.1484 8.92403 16.6193C9.556 18.0902 10.4873 19.4277 11.6642 20.5548C12.8412 21.6819 14.2406 22.5763 15.782 23.1866C17.3234 23.797 18.9763 24.1111 20.6457 24.1111H20.7211C22.1487 24.096 23.5122 23.5445 24.5146 22.5768C25.517 21.6091 26.0772 20.3035 26.0732 18.9444V18.4421C26.072 17.9478 25.9368 17.4622 25.6806 17.0322C25.4244 16.6022 25.0559 16.2425 24.6108 15.988ZM22.4549 18.9444C22.4589 19.1669 22.4168 19.3878 22.3311 19.5947C22.2453 19.8017 22.1176 19.9905 21.9552 20.1504C21.7928 20.3104 21.5989 20.4383 21.3846 20.5268C21.1702 20.6154 20.9397 20.6629 20.706 20.6667H20.6457C19.4533 20.6648 18.273 20.4389 17.1725 20.0019C16.072 19.5649 15.0729 18.9254 14.2325 18.12C13.3922 17.3147 12.727 16.3594 12.2753 15.3089C11.8236 14.2584 11.5941 13.1333 11.6 11.9981C11.604 11.7757 11.6539 11.5563 11.7469 11.3522C11.84 11.1482 11.9743 10.9636 12.1423 10.809C12.3103 10.6544 12.5087 10.5328 12.7261 10.4512C12.9434 10.3696 13.1756 10.3295 13.4092 10.3333H13.5901L14.359 11.5532L13.7861 12.644C13.5888 13.0224 13.5458 13.4571 13.6655 13.8639C13.9939 15.0227 14.6359 16.0792 15.5274 16.928C16.419 17.7767 17.5288 18.3878 18.7461 18.7005C19.1735 18.8144 19.6301 18.7735 20.0276 18.5857L21.1734 18.0403L22.4549 18.7722V18.9444Z" fill="white"/>
</svg>
