<svg width="33" height="30" viewBox="0 0 33 30" fill="none" xmlns="http://www.w3.org/2000/svg">
<path d="M16.3999 10.5C15.1468 10.5 13.9449 10.9741 13.0588 11.818C12.1727 12.6619 11.6749 13.8065 11.6749 15C11.6749 16.1935 12.1727 17.3381 13.0588 18.182C13.9449 19.0259 15.1468 19.5 16.3999 19.5C17.6531 19.5 18.8549 19.0259 19.741 18.182C20.6271 17.3381 21.1249 16.1935 21.1249 15C21.1249 13.8065 20.6271 12.6619 19.741 11.818C18.8549 10.9741 17.6531 10.5 16.3999 10.5ZM16.3999 7.5C18.4885 7.5 20.4915 8.29018 21.9684 9.6967C23.4452 11.1032 24.2749 13.0109 24.2749 15C24.2749 16.9891 23.4452 18.8968 21.9684 20.3033C20.4915 21.7098 18.4885 22.5 16.3999 22.5C14.3113 22.5 12.3083 21.7098 10.8314 20.3033C9.35459 18.8968 8.5249 16.9891 8.5249 15C8.5249 13.0109 9.35459 11.1032 10.8314 9.6967C12.3083 8.29018 14.3113 7.5 16.3999 7.5ZM26.6374 7.125C26.6374 7.62228 26.43 8.09919 26.0608 8.45082C25.6916 8.80246 25.1908 9 24.6687 9C24.1465 9 23.6457 8.80246 23.2765 8.45082C22.9073 8.09919 22.6999 7.62228 22.6999 7.125C22.6999 6.62772 22.9073 6.15081 23.2765 5.79917C23.6457 5.44754 24.1465 5.25 24.6687 5.25C25.1908 5.25 25.6916 5.44754 26.0608 5.79917C26.43 6.15081 26.6374 6.62772 26.6374 7.125ZM16.3999 3C12.5034 3 11.8671 3.0105 10.0542 3.087C8.81943 3.1425 7.99098 3.3 7.22238 3.585C6.57917 3.80991 5.99768 4.17039 5.52138 4.6395C5.02841 5.0931 4.64938 5.64688 4.41258 6.2595C4.11333 6.9945 3.94795 7.782 3.89125 8.9565C3.80935 10.6125 3.7999 11.1915 3.7999 15C3.7999 18.711 3.81093 19.317 3.89125 21.0435C3.94953 22.218 4.1149 23.0085 4.41258 23.739C4.68033 24.3915 4.99533 24.861 5.51823 25.359C6.049 25.863 6.54198 26.1645 7.21923 26.4135C7.99728 26.7 8.82573 26.859 10.0542 26.913C11.793 26.991 12.401 27 16.3999 27C20.2965 27 20.9328 26.9895 22.7456 26.913C23.9772 26.8575 24.8073 26.7 25.5759 26.4165C26.2181 26.1905 26.7992 25.8307 27.2769 25.3635C27.8076 24.858 28.1242 24.3885 28.3857 23.7435C28.6849 23.004 28.8519 22.2135 28.9086 21.0435C28.9905 19.3875 28.9999 18.8085 28.9999 15C28.9999 11.289 28.9889 10.683 28.9086 8.9565C28.8503 7.7835 28.6849 6.9915 28.3857 6.2595C28.1483 5.6475 27.7699 5.09394 27.2784 4.6395C26.8024 4.16977 26.2208 3.80875 25.5774 3.5835C24.8057 3.2985 23.9772 3.141 22.7456 3.087C21.0068 3.009 20.3988 3 16.3999 3ZM16.3999 0C20.6792 0 21.2131 0.0149999 22.8921 0.0899999C24.5694 0.165 25.7113 0.4155 26.7162 0.7875C27.7557 1.1685 28.6314 1.6845 29.5071 2.517C30.3079 3.26684 30.9276 4.17388 31.323 5.175C31.7121 6.1305 31.9767 7.2195 32.0554 8.817C32.1294 10.416 32.1499 10.9245 32.1499 15C32.1499 19.0755 32.1342 19.584 32.0554 21.183C31.9767 22.7805 31.7121 23.868 31.323 24.825C30.9288 25.8267 30.3089 26.7339 29.5071 27.483C28.7195 28.2455 27.7672 28.8356 26.7162 29.2125C25.7129 29.583 24.5694 29.835 22.8921 29.91C21.2131 29.9805 20.6792 30 16.3999 30C12.1206 30 11.5867 29.985 9.90775 29.91C8.23038 29.835 7.0885 29.583 6.08365 29.2125C5.03207 28.8367 4.07951 28.2464 3.29275 27.483C2.49172 26.7333 1.87199 25.8262 1.47678 24.825C1.08618 23.8695 0.823152 22.7805 0.744402 21.183C0.670377 19.584 0.649902 19.0755 0.649902 15C0.649902 10.9245 0.665652 10.416 0.744402 8.817C0.823152 7.218 1.08618 6.132 1.47678 5.175C1.8709 4.17327 2.49077 3.26598 3.29275 2.517C4.07973 1.75385 5.03223 1.16359 6.08365 0.7875C7.0885 0.4155 8.2288 0.165 9.90775 0.0899999C11.5867 0.0194999 12.1206 0 16.3999 0Z" fill="white"/>
</svg>
