<svg width="33" height="30" viewBox="0 0 33 30" fill="none" xmlns="http://www.w3.org/2000/svg">
<path d="M2.7374 30C2.2124 30 1.7749 29.8333 1.4249 29.5C1.0749 29.1667 0.899902 28.75 0.899902 28.25V21.5C0.899902 21.1111 1.03115 20.7706 1.29365 20.4783C1.55615 20.1861 1.89157 19.9989 2.2999 19.9167L8.3374 18.75C8.74574 18.6944 9.16165 18.7294 9.58515 18.855C10.0087 18.9806 10.3511 19.1678 10.6124 19.4167L14.7249 23.3333C16.9416 22.0556 18.9687 20.5417 20.8062 18.7917C22.6437 17.0417 24.1749 15.1667 25.3999 13.1667L21.1999 9.08333C20.9374 8.83333 20.7694 8.54833 20.6959 8.22833C20.6224 7.90833 20.6154 7.55444 20.6749 7.16667L21.8124 1.33333C21.8707 0.944444 22.0603 0.625 22.3812 0.375C22.702 0.125 23.0666 0 23.4749 0H30.5624C31.0874 0 31.5249 0.166667 31.8749 0.5C32.2249 0.833333 32.3999 1.25 32.3999 1.75C32.3999 5.33333 31.5611 8.82667 29.8834 12.23C28.2057 15.6333 25.9891 18.6472 23.2334 21.2717C20.4777 23.8961 17.3132 26.0072 13.7397 27.605C10.1662 29.2028 6.49874 30.0011 2.7374 30Z" fill="white"/>
</svg>
