<svg width="76" height="108" viewBox="0 0 76 108" fill="none" xmlns="http://www.w3.org/2000/svg">
<path d="M65.9097 12.9273H50.3394C47.526 12.9363 47.6313 17.1296 50.3394 17.1049H65.9097V19.2486H50.3394C47.5417 19.224 47.6447 23.415 50.3394 23.4262H65.9097V25.6169H50.3394C47.5417 25.6169 47.6447 29.8057 50.3394 29.7945H65.9097V31.8822H50.3394C47.5999 31.9024 47.6447 36.0957 50.3394 36.1091H65.9097V38.2013H50.3394C47.5999 38.1923 47.5887 42.3789 50.3394 42.3789H65.9097V44.4665H50.3394C47.5999 44.4755 47.5887 48.6665 50.3394 48.6464H65.9097V50.7856H50.3394C47.5999 50.7609 47.5887 54.9475 50.3394 54.9632H65.9097V57.0464H50.3394C47.5999 57.0441 47.6447 61.2397 50.3394 61.2262H65.9097V101.902C65.9186 108.1 75.3333 107.988 75.3602 101.902V6.71359C75.3333 3.88223 73.0082 0.30271 69.1823 0.29151H50.3394C47.526 0.29375 47.6313 4.48703 50.3394 4.46911L65.9097 4.52063V6.60383H50.3394C47.5305 6.59039 47.6357 10.7814 50.3394 10.7837H65.9097V12.9273ZM49.2687 85.0419C49.2597 77.8067 41.7602 70.0249 32.8002 75.0649V47.392L27.0053 1.75199C26.8844 0.54463 25.8607 0.26015 25.173 0.23999C24.4629 0.26015 23.0406 0.54463 22.886 1.75199L17.1202 47.392V75.0649C8.16023 70.0249 0.902631 77.856 0.900391 84.9859C0.902631 91.3296 5.78583 96.5398 12.3938 96.5241C19.0511 96.5398 23.8402 90.7001 23.8402 84.9859V56.24H26.0802V84.9859C26.0802 91.3833 31.0351 96.1187 36.541 96.4189C36.4492 99.9267 37.5938 104.931 39.7487 106.916C42.2754 109.245 45.2837 106.266 44.0495 103.84C42.8578 101.582 41.6885 100.245 42.6383 95.3145C46.6076 93.4777 49.2597 89.6115 49.2687 85.0419ZM12.6492 90.7337C11.1387 90.7337 9.69013 90.1337 8.62207 89.0657C7.55402 87.9976 6.95399 86.549 6.95399 85.0385C6.95399 83.5281 7.55402 82.0795 8.62207 81.0114C9.69013 79.9434 11.1387 79.3433 12.6492 79.3433C15.7538 79.3613 18.2828 81.9081 18.3052 85.0419C18.2988 86.5433 17.702 87.9819 16.6437 89.047C15.5854 90.112 14.1505 90.7179 12.6492 90.7337ZM31.8482 85.0419C31.8534 83.5391 32.45 82.0988 33.5088 81.0324C34.5677 79.966 36.0038 79.3592 37.5065 79.3433C39.0097 79.3569 40.4469 79.963 41.5059 81.03C42.5649 82.0969 43.1602 83.5386 43.1625 85.0419C43.1602 86.5446 42.5646 87.9855 41.5055 89.0514C40.4463 90.1173 39.0091 90.7219 37.5065 90.7337C36.0042 90.7202 34.5678 90.1151 33.5086 89.0497C32.4494 87.9842 31.8529 86.5442 31.8482 85.0419Z" fill="white"/>
</svg>
