<svg width="109" height="103" viewBox="0 0 109 103" fill="none" xmlns="http://www.w3.org/2000/svg">
<path fill-rule="evenodd" clip-rule="evenodd" d="M27.8438 24.0354C27.8438 19.1958 49.5 15.5 49.5 15.5C49.5 15.5 71.1562 19.1958 71.1562 24.0354C71.1562 30.4875 67.2169 33.2083 67.2169 33.2083H31.7831C31.7831 33.2083 27.8438 30.4875 27.8438 24.0354ZM52.5938 24.875C52.5938 25.7038 52.2678 26.4987 51.6876 27.0847C51.1074 27.6708 50.3205 28 49.5 28C48.6795 28 47.8926 27.6708 47.3124 27.0847C46.7322 26.4987 46.4062 25.7038 46.4062 24.875C46.4062 24.0462 46.7322 23.2513 47.3124 22.6653C47.8926 22.0792 48.6795 21.75 49.5 21.75C50.3205 21.75 51.1074 22.0792 51.6876 22.6653C52.2678 23.2513 52.5938 24.0462 52.5938 24.875ZM65.6164 41.0833C68.4832 38.8229 68.0377 36.3333 68.0377 36.3333H30.9622C30.9622 36.3333 30.5147 38.8229 33.3836 41.0833C32.8555 43.5173 32.8744 46.0398 33.4388 48.4654C34.0033 50.891 35.099 53.1579 36.6453 55.0993C38.1917 57.0406 40.1493 58.6071 42.3741 59.6833C44.5989 60.7596 47.0342 61.3183 49.501 61.3183C51.9678 61.3183 54.4032 60.7596 56.628 59.6833C58.8528 58.6071 60.8104 57.0406 62.3567 55.0993C63.9031 53.1579 64.9988 50.891 65.5632 48.4654C66.1277 46.0398 66.1466 43.5173 65.6184 41.0833H65.6164ZM49.5 44.6667C55.1121 44.6667 59.0349 44.0125 61.776 43.0708C61.999 44.8319 61.8481 46.6208 61.3332 48.3184C60.8184 50.016 59.9514 51.5833 58.7901 52.916C57.6287 54.2487 56.1996 55.3162 54.5979 56.0475C52.9963 56.7787 51.2587 57.157 49.501 57.157C47.7433 57.157 46.0058 56.7787 44.4041 56.0475C42.8024 55.3162 41.3733 54.2487 40.212 52.916C39.0506 51.5833 38.1837 50.016 37.6688 48.3184C37.154 46.6208 37.003 44.8319 37.2261 43.0708C39.9651 44.0125 43.8879 44.6667 49.5 44.6667ZM52.5938 65.5C53.1408 65.5 53.6654 65.7195 54.0522 66.1102C54.439 66.5009 54.6562 67.0308 54.6562 67.5833V70.4625C54.656 70.8493 54.5492 71.2284 54.3478 71.5573C54.1464 71.8863 53.8582 72.1521 53.5157 72.325L52.5938 72.7917L53.7838 78.8021L62.5288 65.5521C63.1269 65.5521 63.6838 65.5562 64.1871 65.5604C75.3349 68.1292 86.625 73.3667 86.625 81.2458V90.5H12.375V81.2458C12.375 73.3667 24.1581 68.0687 35.3059 65.5C35.2667 65.5083 35.6854 65.5146 36.4506 65.5208L45.2863 78.9062L46.4062 72.7917L45.4843 72.325C45.1418 72.1521 44.8536 71.8863 44.6522 71.5573C44.4508 71.2284 44.344 70.8493 44.3438 70.4625V67.5833C44.3438 67.0308 44.561 66.5009 44.9478 66.1102C45.3346 65.7195 45.8592 65.5 46.4062 65.5H52.5938ZM72.1875 76.6104C72.1875 76.6104 69.4382 75.2229 68.0625 73.8333C66.6868 75.2229 63.9375 76.6104 63.9375 76.6104C63.9375 76.6104 65.3771 82.1667 68.0625 82.1667C70.7479 82.1667 72.1875 76.6104 72.1875 76.6104Z" fill="white"/>
<path d="M91.4998 18.9583C92.3724 18.9583 93.225 19.2191 93.9481 19.7073C94.6713 20.1956 95.2319 20.8889 95.558 21.6982C95.8841 22.5075 95.9608 23.3958 95.7782 24.249C95.5955 25.1022 95.162 25.8813 94.5332 26.4862L91.7478 29.1666H95.8748V32.0833H87.1248V29.5691L92.5105 24.3848C92.6842 24.2177 92.8139 24.0102 92.8878 23.7808C92.9618 23.5514 92.9777 23.3072 92.9342 23.0701C92.8907 22.833 92.7891 22.6105 92.6385 22.4222C92.4879 22.234 92.293 22.0861 92.0712 21.9917C91.8495 21.8972 91.6078 21.8592 91.3677 21.8811C91.1277 21.9029 90.8968 21.9839 90.6957 22.1168C90.4946 22.2497 90.3296 22.4304 90.2154 22.6427C90.1013 22.855 90.0415 23.0923 90.0415 23.3333H87.1248C87.1248 22.173 87.5858 21.0602 88.4062 20.2397C89.2267 19.4192 90.3395 18.9583 91.4998 18.9583ZM100.25 18.9583V24.7916H103.167V18.9583H106.083V32.0833H103.167V27.7083H97.3332V18.9583H100.25ZM79.8332 17.5C79.8314 19.2494 80.2238 20.9767 80.9812 22.5536C81.7386 24.1306 82.8416 25.5166 84.2082 26.6087V30.132C81.9904 28.8524 80.1487 27.0112 78.8687 24.7936C77.5886 22.5761 76.9153 20.0605 76.9165 17.5H79.8332ZM91.4998 2.91663C99.0613 2.91663 105.28 8.67267 106.01 16.0416H103.076C102.792 13.7886 101.857 11.6674 100.384 9.93815C98.9125 8.20893 96.9678 6.94685 94.789 6.30666C92.6102 5.66647 90.2919 5.67599 88.1184 6.33407C85.9449 6.99215 84.0107 8.27017 82.553 10.0114L85.6665 13.125H76.9165V4.37497L80.485 7.94205C81.8528 6.36294 83.5445 5.09679 85.4451 4.22965C87.3457 3.3625 89.4107 2.91468 91.4998 2.91663Z" fill="white"/>
</svg>
