<svg width="112" height="112" viewBox="0 0 112 112" fill="none" xmlns="http://www.w3.org/2000/svg">
<path d="M83.9998 9.38004L27.9998 9.33337C22.8198 9.33337 18.6665 13.4867 18.6665 18.6667V93.3334C18.6665 98.5134 22.8198 102.667 27.9998 102.667H83.9998C89.1798 102.667 93.3332 98.5134 93.3332 93.3334V18.6667C93.3332 13.4867 89.1798 9.38004 83.9998 9.38004ZM83.9998 93.3334H27.9998L27.9532 18.6667H83.9998V93.3334Z" fill="white"/>
<path d="M37.3332 32.6667C39.9105 32.6667 41.9998 30.5774 41.9998 28C41.9998 25.4227 39.9105 23.3334 37.3332 23.3334C34.7558 23.3334 32.6665 25.4227 32.6665 28C32.6665 30.5774 34.7558 32.6667 37.3332 32.6667Z" fill="white"/>
<path d="M51.3332 32.6667C53.9105 32.6667 55.9998 30.5774 55.9998 28C55.9998 25.4227 53.9105 23.3334 51.3332 23.3334C48.7558 23.3334 46.6665 25.4227 46.6665 28C46.6665 30.5774 48.7558 32.6667 51.3332 32.6667Z" fill="white"/>
<path d="M55.9998 88.6667C68.8798 88.6667 79.3332 78.2133 79.3332 65.3333C79.3332 52.4533 68.8798 42 55.9998 42C43.1198 42 32.6665 52.4533 32.6665 65.3333C32.6665 78.2133 43.1198 88.6667 55.9998 88.6667ZM67.0132 54.32C73.0798 60.3867 73.0798 70.28 67.0132 76.3467C60.9465 82.4133 51.0532 82.4133 44.9865 76.3467L67.0132 54.32Z" fill="white"/>
</svg>
