<svg width="112" height="112" viewBox="0 0 112 112" fill="none" xmlns="http://www.w3.org/2000/svg">
<path d="M107.333 61.7866C107.333 72.3496 99.7078 79.3333 90.2998 79.3333H21.6975C12.2942 79.3333 4.6665 71.4793 4.6665 61.7866V50.2133C4.6665 40.5206 12.2942 32.6666 21.6975 32.6666H90.2998C99.7078 32.6666 107.333 40.5206 107.333 50.2133V61.7866Z" fill="#FFFAFA"/>
<path d="M55.9999 91C75.2035 91 90.7712 75.33 90.7712 56C90.7712 36.67 75.2035 21 55.9999 21C36.7962 21 21.2285 36.67 21.2285 56C21.2285 75.33 36.7962 91 55.9999 91Z" fill="#FFFAFA"/>
<path d="M39.6664 44.3334H33.2824L31.3294 58.0044L28.9051 44.3987H23.1698L20.6824 58.0044L18.7924 44.3987H12.2871L17.7261 67.6667H23.4638L25.9464 53.326L28.4874 67.6667H34.2834L39.6664 44.3334ZM44.3331 51.3334H50.1851V67.6667H44.3331V51.3334ZM50.1664 46.0764C50.1822 46.4692 50.1184 46.8612 49.9789 47.2287C49.8394 47.5963 49.6271 47.9319 49.3547 48.2154C49.0823 48.4989 48.7554 48.7245 48.3937 48.8786C48.032 49.0326 47.6429 49.1121 47.2498 49.1121C46.8566 49.1121 46.4675 49.0326 46.1058 48.8786C45.7441 48.7245 45.4173 48.4989 45.1449 48.2154C44.8725 47.9319 44.6602 47.5963 44.5207 47.2287C44.3812 46.8612 44.3174 46.4692 44.3331 46.0764C44.3331 44.4524 45.6398 43.141 47.2498 43.141C48.8598 43.141 50.1664 44.4524 50.1664 46.0764ZM89.9754 37.3334H71.3578C71.3578 37.3334 58.3331 37.7837 58.3331 51.1327V61.25C58.3331 61.25 58.5688 68.1124 51.3331 74.6667H90.4981C90.4981 74.6667 102.666 74.6667 102.666 61.7097V50.3254C102.666 50.3254 102.134 37.3334 89.9754 37.3334ZM87.1241 49.861H73.9384V55.0784H85.8244V60.5477H73.9384V67.6667H67.6664V44.3334H87.1241V49.861ZM93.9164 43.141C95.5241 43.141 96.8331 44.4524 96.8331 46.0764C96.8331 47.6934 95.5241 49 93.9164 49C92.3088 49 90.9998 47.6934 90.9998 46.0764C90.9998 44.4524 92.3088 43.141 93.9164 43.141ZM96.8518 67.6667H90.9998V51.3334H96.8518V67.6667Z" fill="#082673"/>
</svg>
