<svg width="112" height="112" viewBox="0 0 112 112" fill="none" xmlns="http://www.w3.org/2000/svg">
<path d="M57.3108 82.11C72.4448 82.11 84.7403 70.5023 85.2635 56C84.7403 41.4978 72.4448 29.89 57.3108 29.89C42.1785 29.89 29.8795 41.4978 29.3633 56C29.8778 70.5023 42.1768 82.11 57.3108 82.11Z" fill="white"/>
<path d="M57.3123 17.5C36.0498 17.5 18.8105 34.7375 18.8105 56C18.8105 77.2607 36.0515 94.5 57.3123 94.5C78.573 94.5 95.8123 77.2607 95.8123 56C95.8123 34.7375 78.573 17.5 57.3123 17.5ZM57.3105 84C41.8458 84 29.3088 71.8883 29.3088 56.9433C29.3088 56.6248 29.3525 56.315 29.363 56C29.3525 55.685 29.3088 55.3735 29.3088 55.0568C29.3088 40.1118 41.8475 28 57.3105 28C72.7753 28 85.3105 40.1118 85.3105 55.0568C85.3105 55.3735 85.2738 55.685 85.265 56C85.2755 56.315 85.3105 56.6248 85.3105 56.9433C85.3088 71.8883 72.7753 84 57.3105 84Z" fill="white"/>
<path d="M6.09152 12.9868C6.51152 11.34 7.34277 12.9675 7.34277 12.9675C7.34277 12.9675 7.63327 30.0125 9.52327 30.198C11.4133 30.3835 9.95727 12.6595 12.1938 12.32C14.2728 11.9893 13.0863 30.4798 14.9798 30.2925C16.8663 30.093 17.1848 13.055 17.1848 13.055C17.1848 13.055 18.0248 11.4293 18.4395 13.0638C23.5635 33.2063 19.4178 41.44 19.4178 41.44C19.4178 41.44 18.7178 43.1708 17.0553 43.1795C16.8995 43.1708 17.0168 91.0175 17.0063 97.4505C17.0098 100.578 7.38127 100.482 7.38652 97.3683C7.39352 90.9353 7.58077 43.0938 7.43027 43.0973C5.76252 43.0973 5.06427 41.3683 5.06427 41.3683C5.06427 41.3683 0.934271 33.1398 6.09152 12.9868ZM97.3348 12.25C99.5013 12.2448 108.489 18.725 108.5 42.8085C108.51 50.5103 104.309 50.5085 104.316 55.3263C104.323 60.1353 104.349 98.3868 104.349 98.3868C104.349 98.3868 99.7393 101.549 96.3128 98.2398L96.2498 12.9343C96.2533 12.936 96.241 12.2483 97.3348 12.25Z" fill="white"/>
</svg>
