<svg width="116" height="91" viewBox="0 0 116 91" fill="none" xmlns="http://www.w3.org/2000/svg">
<path d="M48.75 8.49759C47.888 8.49759 47.0614 8.92392 46.4519 9.68278C45.8424 10.4416 45.5 11.4709 45.5 12.5441V20.2324H6.5V4.04647C6.5 2.97328 6.15759 1.94405 5.5481 1.18518C4.9386 0.426324 4.11195 0 3.25 0C2.38805 0 1.5614 0.426324 0.951903 1.18518C0.34241 1.94405 0 2.97328 0 4.04647L0 40.4647H6.5V32.3718H45.5V40.4647H52V12.5441C52 11.4709 51.6576 10.4416 51.0481 9.68278C50.4386 8.92392 49.612 8.49759 48.75 8.49759Z" fill="white"/>
<path d="M112.75 8.49759C111.888 8.49759 111.061 8.92392 110.452 9.68278C109.842 10.4416 109.5 11.4709 109.5 12.5441V20.2324H70.5V4.04647C70.5 2.97328 70.1576 1.94405 69.5481 1.18518C68.9386 0.426324 68.112 0 67.25 0C66.388 0 65.5614 0.426324 64.9519 1.18518C64.3424 1.94405 64 2.97328 64 4.04647V40.4647H70.5V32.3718H109.5V40.4647H116V12.5441C116 11.4709 115.658 10.4416 115.048 9.68278C114.439 8.92392 113.612 8.49759 112.75 8.49759Z" fill="white"/>
<path d="M48.75 58.3003C47.888 58.3003 47.0614 58.7267 46.4519 59.4855C45.8424 60.2444 45.5 61.2736 45.5 62.3468V70.0351H6.5V53.8492C6.5 52.776 6.15759 51.7468 5.5481 50.9879C4.9386 50.2291 4.11195 49.8027 3.25 49.8027C2.38805 49.8027 1.5614 50.2291 0.951903 50.9879C0.34241 51.7468 0 52.776 0 53.8492L0 90.2675H6.5V82.1745H45.5V90.2675H52V62.3468C52 61.2736 51.6576 60.2444 51.0481 59.4855C50.4386 58.7267 49.612 58.3003 48.75 58.3003Z" fill="white"/>
<path d="M112.75 58.3003C111.888 58.3003 111.061 58.7267 110.452 59.4855C109.842 60.2444 109.5 61.2736 109.5 62.3468V70.0351H70.5V53.8492C70.5 52.776 70.1576 51.7468 69.5481 50.9879C68.9386 50.2291 68.112 49.8027 67.25 49.8027C66.388 49.8027 65.5614 50.2291 64.9519 50.9879C64.3424 51.7468 64 52.776 64 53.8492V90.2675H70.5V82.1745H109.5V90.2675H116V62.3468C116 61.2736 115.658 60.2444 115.048 59.4855C114.439 58.7267 113.612 58.3003 112.75 58.3003Z" fill="white"/>
</svg>
