<svg width="92" height="98" viewBox="0 0 92 98" fill="none" xmlns="http://www.w3.org/2000/svg">
<path d="M78 63H57V56H78V63ZM92 91H71V84H92V91ZM85 77H64V70H85V77Z" fill="white"/>
<path d="M46.5104 63C46.4857 60.0467 45.698 57.15 44.2238 54.5909C42.7495 52.0319 40.6388 49.8973 38.0964 48.3945L63.9999 3.5L57.9449 0L31.4254 45.941C28.1707 45.2139 24.7857 45.3145 21.58 46.2335C18.3742 47.1525 15.45 48.8605 13.0749 51.2015C-0.0291227 63.84 0.985879 93.387 1.03488 94.64C1.07106 95.5438 1.45572 96.3985 2.10822 97.0249C2.76071 97.6513 3.63038 98.0007 4.53488 98H57.0034C57.738 98 58.4539 97.7689 59.0499 97.3393C59.6458 96.9098 60.0915 96.3037 60.3238 95.6068C60.5561 94.9099 60.5632 94.1576 60.3442 93.4564C60.1251 92.7552 59.691 92.1408 59.1034 91.7C46.7134 82.404 46.5104 63.189 46.5104 63ZM28.7549 52.4895C31.5562 52.5203 34.2378 53.6299 36.2417 55.5876C38.2457 57.5453 39.4177 60.2002 39.5139 63C39.5139 63.133 39.5209 63.728 39.5734 64.6415L18.9234 55.4575C20.2836 54.3358 21.8533 53.4958 23.5411 52.9863C25.2289 52.4768 27.0012 52.3079 28.7549 52.4895ZM41.0749 91C38.2773 88.1514 36.494 84.4619 35.9999 80.5H28.9999C29.2505 84.225 30.4141 87.831 32.3879 91H24.6074C23.168 86.4578 22.2923 81.7559 21.9999 77H14.9999C15.2256 81.7416 16.0068 86.4404 17.3274 91H7.99988C8.10838 84.574 9.01488 70.378 14.3104 61.0645L40.6759 72.7895C41.9426 79.3671 44.6433 85.5847 48.5859 91H41.0749Z" fill="white"/>
</svg>
